<svg id="SvgjsSvg1064" width="445" height="85" xmlns="http://www.w3.org/2000/svg" version="1.1" xmlns:xlink="http://www.w3.org/1999/xlink" xmlns:svgjs="http://svgjs.com/svgjs"><defs id="SvgjsDefs1065"><marker id="SvgjsMarker1098" markerWidth="16" markerHeight="12" refX="16" refY="6" viewBox="0 0 16 12" orient="auto" markerUnits="userSpaceOnUse" stroke-dasharray="0,0"><path id="SvgjsPath1099" d="M0,2 L14,6 L0,11 L0,2" fill="#323232" stroke="#323232" stroke-width="2"></path></marker><marker id="SvgjsMarker1102" markerWidth="16" markerHeight="12" refX="16" refY="6" viewBox="0 0 16 12" orient="auto" markerUnits="userSpaceOnUse" stroke-dasharray="0,0"><path id="SvgjsPath1103" d="M0,2 L14,6 L0,11 L0,2" fill="#323232" stroke="#323232" stroke-width="2"></path></marker><marker id="SvgjsMarker1106" markerWidth="16" markerHeight="12" refX="16" refY="6" viewBox="0 0 16 12" orient="auto" markerUnits="userSpaceOnUse" stroke-dasharray="0,0"><path id="SvgjsPath1107" d="M0,2 L14,6 L0,11 L0,2" fill="#323232" stroke="#323232" stroke-width="2"></path></marker><marker id="SvgjsMarker1116" markerWidth="16" markerHeight="12" refX="16" refY="6" viewBox="0 0 16 12" orient="auto" markerUnits="userSpaceOnUse" stroke-dasharray="0,0"><path id="SvgjsPath1117" d="M0,2 L14,6 L0,11 L0,2" fill="#323232" stroke="#323232" stroke-width="2"></path></marker><marker id="SvgjsMarker1120" markerWidth="16" markerHeight="12" refX="16" refY="6" viewBox="0 0 16 12" orient="auto" markerUnits="userSpaceOnUse" stroke-dasharray="0,0"><path id="SvgjsPath1121" d="M0,2 L14,6 L0,11 L0,2" fill="#323232" stroke="#323232" stroke-width="2"></path></marker></defs><g id="SvgjsG1066" transform="translate(25,25)"><path id="SvgjsPath1067" d="M 0 17.5C 0 -5.833333333333333 35 -5.833333333333333 35 17.5C 35 40.833333333333336 0 40.833333333333336 0 17.5Z" stroke="rgba(50,50,50,1)" stroke-width="2" fill-opacity="1" fill="#ffffff"></path><g id="SvgjsG1068"><text id="SvgjsText1069" font-family="微软雅黑" text-anchor="middle" font-size="20px" width="15px" fill="#323232" font-weight="400" align="middle" anchor="middle" family="微软雅黑" size="20px" weight="400" font-style="" opacity="1" y="2" transform="rotate(0)"><tspan id="SvgjsTspan1070" dy="25" x="17.5"><tspan id="SvgjsTspan1071" style="text-decoration:;font-weight: bold;">G</tspan></tspan></text></g></g><g id="SvgjsG1072" transform="translate(385,25)"><path id="SvgjsPath1073" d="M 0 17.5C 0 -5.833333333333333 35 -5.833333333333333 35 17.5C 35 40.833333333333336 0 40.833333333333336 0 17.5Z" stroke="rgba(50,50,50,1)" stroke-width="2" fill-opacity="1" fill="#ffffff"></path><g id="SvgjsG1074"><text id="SvgjsText1075" font-family="微软雅黑" text-anchor="middle" font-size="20px" width="15px" fill="#323232" font-weight="400" align="middle" anchor="middle" family="微软雅黑" size="20px" weight="400" font-style="" opacity="1" y="2" transform="rotate(0)"><tspan id="SvgjsTspan1076" dy="25" x="17.5"><tspan id="SvgjsTspan1077" style="text-decoration:;font-weight: bold;">B</tspan></tspan></text></g></g><g id="SvgjsG1078" transform="translate(98,25)"><path id="SvgjsPath1079" d="M 0 17.5C 0 -5.833333333333333 35 -5.833333333333333 35 17.5C 35 40.833333333333336 0 40.833333333333336 0 17.5Z" stroke="rgba(50,50,50,1)" stroke-width="2" fill-opacity="1" fill="#ffffff"></path><g id="SvgjsG1080"><text id="SvgjsText1081" font-family="微软雅黑" text-anchor="middle" font-size="20px" width="15px" fill="#323232" font-weight="400" align="middle" anchor="middle" family="微软雅黑" size="20px" weight="400" font-style="" opacity="1" y="2" transform="rotate(0)"><tspan id="SvgjsTspan1082" dy="25" x="17.5"><tspan id="SvgjsTspan1083" style="text-decoration:;font-weight: bold;">G</tspan></tspan></text></g></g><g id="SvgjsG1084" transform="translate(169,25)"><path id="SvgjsPath1085" d="M 0 17.5C 0 -5.833333333333333 35 -5.833333333333333 35 17.5C 35 40.833333333333336 0 40.833333333333336 0 17.5Z" stroke="rgba(50,50,50,1)" stroke-width="2" fill-opacity="1" fill="#ffffff"></path><g id="SvgjsG1086"><text id="SvgjsText1087" font-family="微软雅黑" text-anchor="middle" font-size="20px" width="15px" fill="#323232" font-weight="400" align="middle" anchor="middle" family="微软雅黑" size="20px" weight="400" font-style="" opacity="1" y="2" transform="rotate(0)"><tspan id="SvgjsTspan1088" dy="25" x="17.5"><tspan id="SvgjsTspan1089" style="text-decoration:;font-weight: bold;">G</tspan></tspan></text></g></g><g id="SvgjsG1090" transform="translate(239,25)"><path id="SvgjsPath1091" d="M 0 17.5C 0 -5.833333333333333 35 -5.833333333333333 35 17.5C 35 40.833333333333336 0 40.833333333333336 0 17.5Z" stroke="rgba(50,50,50,1)" stroke-width="2" fill-opacity="1" fill="#ffffff"></path><g id="SvgjsG1092"><text id="SvgjsText1093" font-family="微软雅黑" text-anchor="middle" font-size="20px" width="15px" fill="#323232" font-weight="400" align="middle" anchor="middle" family="微软雅黑" size="20px" weight="400" font-style="" opacity="1" y="2" transform="rotate(0)"><tspan id="SvgjsTspan1094" dy="25" x="17.5"><tspan id="SvgjsTspan1095" style="text-decoration:;font-weight: bold;">B</tspan></tspan></text></g></g><g id="SvgjsG1096"><path id="SvgjsPath1097" d="M60 42.5L79 42.5L79 42.5L98 42.5" stroke="#323232" stroke-width="2" fill="none" marker-end="url(#SvgjsMarker1098)"></path></g><g id="SvgjsG1100"><path id="SvgjsPath1101" d="M133 42.5L151 42.5L151 42.5L169 42.5" stroke="#323232" stroke-width="2" fill="none" marker-end="url(#SvgjsMarker1102)"></path></g><g id="SvgjsG1104"><path id="SvgjsPath1105" d="M204 42.5L221.5 42.5L221.5 42.5L239 42.5" stroke="#323232" stroke-width="2" fill="none" marker-end="url(#SvgjsMarker1106)"></path></g><g id="SvgjsG1108" transform="translate(312,32.5)"><path id="SvgjsPath1109" d="M 0 0L 39 0L 39 20L 0 20Z" stroke="none" fill="none"></path><g id="SvgjsG1110"><text id="SvgjsText1111" font-family="微软雅黑" text-anchor="middle" font-size="18px" width="39px" fill="#323232" font-weight="400" align="middle" anchor="middle" family="微软雅黑" size="18px" weight="400" font-style="" opacity="1" y="-4.199999999999999" transform="rotate(0)"><tspan id="SvgjsTspan1112" dy="22" x="19.5"><tspan id="SvgjsTspan1113" style="text-decoration:;font-weight: bold;">......</tspan></tspan></text></g></g><g id="SvgjsG1114"><path id="SvgjsPath1115" d="M274 42.5L290 42.5L290 42.5L306 42.5" stroke="#323232" stroke-width="2" fill="none" marker-end="url(#SvgjsMarker1116)"></path></g><g id="SvgjsG1118"><path id="SvgjsPath1119" d="M351 42.5L368 42.5L368 42.5L385 42.5" stroke="#323232" stroke-width="2" fill="none" marker-end="url(#SvgjsMarker1120)"></path></g></svg>